# xmcd CD database file
#
# Track frame offsets:
#	150
#	18520
#	39015
#
# Disc length: 775 seconds
#
# Revision: 0
# Processed by: cddbd v1.5PL3 Copyright (c) Steve Scherf et al.
# Submitted via: CDex 1.51
#
DISCID=15030503
DTITLE=Shiro - 透明な自分
DYEAR=2000
DGENRE=JPop
TTITLE0=透明な自分
TTITLE1=希望のうた
TTITLE2=Dreams
EXTD=YEAR: 2000
EXTT0=
EXTT1=
EXTT2=
PLAYORDER=
